Coordinates
version=1
nRows=16
nColumns=33
inDegrees=yes

Units are S.I. units (second, meters, Newtons, ...)
Angles are in degrees.

endheader
time	ground_thorax_rot_x	ground_thorax_rot_y	ground_thorax_rot_z	ground_thorax_tx	ground_thorax_ty	ground_thorax_tz	clav_prot_r	clav_elev_r	scapula_abduction_r	scapula_elevation_r	scapula_upward_rot_r	scapula_winging_r	shoulder_elv_r	plane_of_elev_r	axial_rot_r	elbow_flexion_r	pro_sup_r	wrist_flex_r	wrist_dev_r	clav_prot_l	clav_elev_l	scapula_abduction_l	scapula_elevation_l	scapula_upward_rot_l	scapula_winging_l	shoulder_elv_l	plane_of_elev_l	axial_rot_l	elbow_flexion_l	pro_sup_l	wrist_flex_l	wrist_dev_l
      2.57000000	    -32.06701235	    -20.15278976	     29.65596072	    -82.44055358	    866.66347399	    -43.68655349	     25.35122161	    -45.00000000	     39.05711867	    -45.00000000	    -45.00000000	  -4067.01989402	  -4063.68724695	    156.30052136	     19.41494653	   1077.61524505	   -200.73173565	     16.20104728	     13.57638775	     -0.43224015	     32.95897420	    -32.65127394	    -45.00000000	    -45.00000000	  -2792.20650990	  -3686.85962883	    131.71524921	    -98.74336323	    711.20405104	     48.10236629	     12.05991372	    -24.23702645
      2.58000000	    -32.18595143	    -20.13607961	     29.52947801	    -83.37042025	    866.85861702	    -43.91945661	     25.30134072	    -45.00000000	     39.02856960	    -45.00000000	    -45.00000000	  -4067.09737978	  -4063.68216355	    156.34418783	     19.58142255	   1077.56451278	   -200.00591871	     16.44972381	     13.61141386	     -0.47077657	     32.96839229	    -32.54129270	    -45.00000000	    -45.00000000	  -2792.25499646	  -3686.87919156	    131.68232794	    -98.82565221	    711.26508291	     48.70966573	     11.86812371	    -24.36451456
      2.59000000	    -32.25784641	    -20.11131001	     29.42934868	    -84.29406033	    867.00341258	    -44.18692622	     25.26584136	    -45.00000000	     38.97471138	    -45.00000000	    -45.00000000	  -4067.25403373	  -4063.67265155	    156.37341052	     19.69857311	   1077.38762211	   -199.30528474	     16.71547186	     13.58324006	     -0.46892258	     32.93506050	    -32.44156858	    -45.00000000	    -45.00000000	  -2792.27658684	  -3686.96486043	    131.61456541	    -98.90171608	    711.31027761	     49.25981200	     11.72986864	    -24.48342659
      2.60000000	    -32.36483631	    -20.26863752	     29.43500252	    -85.20660775	    867.10630179	    -44.48419955	     25.24095571	    -45.00000000	     38.88309839	    -45.00000000	    -45.00000000	  -4067.19237017	  -4063.70918260	    156.42524555	     19.91997484	   1077.56848623	   -198.57136619	     16.87124401	     13.57308769	     -0.49610477	     32.95771589	    -32.36562312	    -45.00000000	    -45.00000000	  -2792.31087871	  -3686.98268028	    131.76751272	    -99.01146560	    711.30537727	     49.79040840	     11.53843828	    -24.55828459
      2.61000000	    -32.41317751	    -20.37740490	     29.44379692	    -86.10470569	    867.17208395	    -44.80711790	     25.27699465	    -45.00000000	     38.92699103	    -45.00000000	    -45.00000000	  -4067.34992165	  -4063.73718886	    156.46942546	     20.08515856	   1077.46618795	   -197.74499145	     17.09103788	     13.45781431	     -0.48545845	     32.90541744	    -32.31975571	    -45.00000000	    -45.00000000	  -2792.24913202	  -3687.08307621	    131.77652973	    -99.20987420	    711.33952673	     50.38035770	     11.40335248	    -24.65936801
      2.62000000	    -32.44604627	    -20.46818412	     29.45821723	    -86.98579223	    867.20160418	    -45.15279061	     25.26226449	    -45.00000000	     38.86220678	    -45.00000000	    -45.00000000	  -4067.41224833	  -4063.72384447	    156.53928721	     20.27865825	   1077.44590873	   -196.89792588	     17.31406598	     13.44808550	     -0.52602783	     32.91793054	    -32.23803613	    -45.00000000	    -45.00000000	  -2792.27928071	  -3687.17653923	    131.82265773	    -99.41589469	    711.35858270	     50.95474520	     11.21324593	    -24.76098873
      2.63000000	    -32.50018266	    -20.57457578	     29.44598885	    -87.84923013	    867.19178207	    -45.51885941	     25.26993369	    -45.00000000	     38.82716271	    -45.00000000	    -45.00000000	  -4067.50379732	  -4063.75204385	    156.57366721	     20.50439692	   1077.40733341	   -196.05957541	     17.49242004	     13.38567879	     -0.54143574	     32.90041620	    -32.14351750	    -45.00000000	    -45.00000000	  -2792.27139196	  -3687.25370511	    131.84499996	    -99.60543809	    711.39433342	     51.51619319	     11.05065989	    -24.84738259
      2.64000000	    -32.54525925	    -20.65958251	     29.43241219	    -88.68797484	    867.13725647	    -45.89982293	     25.25957699	    -45.00000000	     38.78075977	    -45.00000000	    -45.00000000	  -4067.58526939	  -4063.74929153	    156.62938037	     20.75745371	   1077.38746357	   -195.27024641	     17.65636626	     13.35305086	     -0.58324515	     32.89299989	    -32.04296649	    -45.00000000	    -45.00000000	  -2792.27852449	  -3687.30395121	    131.84872734	    -99.79090683	    711.42824252	     52.03118951	     10.87829023	    -24.93015962
      2.65000000	    -32.58344631	    -20.75862995	     29.41642021	    -89.49481874	    867.03144020	    -46.28796056	     25.26562923	    -45.00000000	     38.76552000	    -45.00000000	    -45.00000000	  -4067.66865446	  -4063.76491279	    156.68219261	     21.02357353	   1077.37295607	   -194.51502923	     17.78151062	     13.29524942	     -0.60445420	     32.88288003	    -31.93640338	    -45.00000000	    -45.00000000	  -2792.28362569	  -3687.36172313	    131.86593875	    -99.96553537	    711.47238863	     52.51538142	     10.72155182	    -24.98287872
      2.66000000	    -32.61769276	    -20.84940943	     29.39755226	    -90.26284851	    866.86760796	    -46.67455306	     25.25861567	    -45.00000000	     38.71756454	    -45.00000000	    -45.00000000	  -4067.74839573	  -4063.76901649	    156.73241384	     21.30183778	   1077.34293686	   -193.81997529	     17.90081580	     13.25546352	     -0.65318409	     32.87495898	    -31.81267683	    -45.00000000	    -45.00000000	  -2792.30936753	  -3687.40545746	    131.84082733	   -100.13800777	    711.51522088	     52.94097333	     10.56686999	    -24.99999983
      2.67000000	    -32.64956959	    -20.98435485	     29.38805763	    -90.97966290	    866.64004618	    -47.04746422	     25.26184892	    -45.00000000	     38.69924574	    -45.00000000	    -45.00000000	  -4067.80889355	  -4063.79754064	    156.77795038	     21.57951952	   1077.34165126	   -193.18285947	     17.99152407	     13.18060694	     -0.67101511	     32.86381244	    -31.68435830	    -45.00000000	    -45.00000000	  -2792.32346729	  -3687.46092770	    131.86733065	   -100.28275332	    711.56039603	     53.30949607	     10.43114613	    -24.99999983
      2.68000000	    -32.68815432	    -21.12651571	     29.37824003	    -91.63595205	    866.34386905	    -47.39708297	     25.25393760	    -45.00000000	     38.68294729	    -45.00000000	    -45.00000000	  -4067.81224009	  -4063.82357412	    156.81553100	     21.89720072	   1077.46468641	   -192.60870857	     18.03925434	     13.12358702	     -0.72235353	     32.84856915	    -31.55817336	    -45.00000000	    -45.00000000	  -2792.33172074	  -3687.50364803	    131.88661684	   -100.42731241	    711.63347223	     53.60683767	     10.28875655	    -24.99999983
      2.69000000	    -32.65434179	    -21.27752910	     29.45275908	    -92.22086081	    865.97652537	    -47.71583133	     25.26975403	    -45.00000000	     38.69443159	    -45.00000000	    -45.00000000	  -4067.91433327	  -4063.83768588	    156.89071316	     22.06775982	   1077.36778839	   -192.10608419	     18.15826186	     12.99844375	     -0.72896890	     32.83447680	    -31.51546073	    -45.00000000	    -45.00000000	  -2792.35924825	  -3687.58468605	    131.95737474	   -100.59282947	    711.52542235	     53.89499668	     10.22225909	    -24.99999983
      2.70000000	    -32.66261083	    -21.41153167	     29.48601024	    -92.72881459	    865.53524113	    -48.00278119	     25.32940120	    -45.00000000	     38.65502369	    -45.00000000	    -45.00000000	  -4067.96876606	  -4063.81842495	    156.91072602	     22.32035781	   1077.41080759	   -191.60116119	     18.22788170	     12.96200165	     -0.78242849	     32.82561411	    -31.40700159	    -45.00000000	    -45.00000000	  -2792.36390474	  -3687.62850650	    131.95747764	   -100.79401811	    711.55577720	     54.12850585	     10.11684082	    -24.99999983
      2.71000000	    -32.62800833	    -21.60285640	     29.58560731	    -93.15125244	    865.02183144	    -48.25899936	     25.31336529	    -45.00000000	     38.70209966	    -45.00000000	    -45.00000000	  -4068.00019573	  -4063.85441836	    156.99041076	     22.52139559	   1077.47966546	   -191.16762722	     18.28281736	     12.81781061	     -0.78682216	     32.81008884	    -31.32263131	    -45.00000000	    -45.00000000	  -2792.39408645	  -3687.71549752	    132.03615097	   -100.93999329	    711.55255614	     54.31640050	     10.03973828	    -24.99999983
      2.72000000	    -32.62773147	    -21.73959811	     29.63142913	    -93.48309245	    864.44098255	    -48.48831879	     25.38077111	    -45.00000000	     38.63010231	    -45.00000000	    -45.00000000	  -4068.00313201	  -4063.86234228	    156.98537129	     22.77999073	   1077.58554829	   -190.75884454	     18.30661396	     12.84671104	     -0.85471454	     32.79668728	    -31.21716952	    -45.00000000	    -45.00000000	  -2792.42284371	  -3687.74698401	    132.01538230	   -101.11055891	    711.58173791	     54.44588777	      9.96058197	    -24.99999983
